<?xml version="1.0" encoding="UTF-8" standalone="no"?>
<!DOCTYPE svg PUBLIC "-//W3C//DTD SVG 1.1//EN" "http://www.w3.org/Graphics/SVG/1.1/DTD/svg11.dtd">
<svg width="100%" height="100%" viewBox="0 0 64 64" version="1.1" xmlns="http://www.w3.org/2000/svg" xmlns:xlink="http://www.w3.org/1999/xlink" xml:space="preserve" xmlns:serif="http://www.serif.com/" style="fill-rule:evenodd;clip-rule:evenodd;stroke-linejoin:round;stroke-miterlimit:2;">
    <g transform="matrix(1.09924,0,0,1.06287,14.8027,14.9267)">
        <path d="M42.936,13.479L42.936,34.019C42.936,39.687 38.487,44.289 33.006,44.289L13.146,44.289C7.665,44.289 3.215,39.687 3.215,34.019L3.215,13.479C3.215,7.81 7.665,3.209 13.146,3.209L33.006,3.209C38.487,3.209 42.936,7.81 42.936,13.479ZM39.298,13.479C39.298,9.888 36.478,6.972 33.006,6.972L13.146,6.972C9.673,6.972 6.854,9.888 6.854,13.479L6.854,34.019C6.854,37.61 9.673,40.526 13.146,40.526L33.006,40.526C36.478,40.526 39.298,37.61 39.298,34.019L39.298,13.479Z" style="fill:rgb(128,128,128);"/>
    </g>
    <g transform="matrix(1.09924,0,0,1.06287,-1.53427,-1.41029)">
        <path d="M42.936,18.579L28.008,18.579C22.527,18.579 18.077,23.181 18.077,28.849L18.077,44.289L13.146,44.289C7.665,44.289 3.215,39.687 3.215,34.019L3.215,13.479C3.215,7.81 7.665,3.209 13.146,3.209L33.006,3.209C38.487,3.209 42.936,7.81 42.936,13.479L42.936,18.579Z" style="fill:rgb(128,128,128);"/>
    </g>
</svg>
