<?xml version="1.0" encoding="UTF-8" standalone="no"?>
<!DOCTYPE svg PUBLIC "-//W3C//DTD SVG 1.1//EN" "http://www.w3.org/Graphics/SVG/1.1/DTD/svg11.dtd">
<svg width="100%" height="100%" viewBox="0 0 64 64" version="1.1" xmlns="http://www.w3.org/2000/svg" xmlns:xlink="http://www.w3.org/1999/xlink" xml:space="preserve" xmlns:serif="http://www.serif.com/" style="fill-rule:evenodd;clip-rule:evenodd;stroke-linejoin:round;stroke-miterlimit:2;">
    <g transform="matrix(1.41577,0,0,1.34148,-2.81267,-2.01137)">
        <path d="M24.589,2.99L29.347,18.443L44.742,18.443L32.287,27.993L37.044,43.446L24.589,33.896L12.134,43.446L16.892,27.993L4.436,18.443L19.832,18.443L24.589,2.99Z" style="fill:rgb(128,128,128);"/>
    </g>
    <g transform="matrix(1,0,0,0.643683,1.5786,22.0917)">
        <path d="M56.93,51.774C56.93,49.893 55.947,48.365 54.736,48.365L6.107,48.365C4.896,48.365 3.912,49.893 3.912,51.774L3.912,58.591C3.912,60.473 4.896,62 6.107,62L54.736,62C55.947,62 56.93,60.473 56.93,58.591L56.93,51.774Z" style="fill:rgb(128,128,128);"/>
    </g>
</svg>
