<?xml version="1.0" encoding="UTF-8" standalone="no"?>
<!DOCTYPE svg PUBLIC "-//W3C//DTD SVG 1.1//EN" "http://www.w3.org/Graphics/SVG/1.1/DTD/svg11.dtd">
<svg width="100%" height="100%" viewBox="0 0 64 64" version="1.1" xmlns="http://www.w3.org/2000/svg" xmlns:xlink="http://www.w3.org/1999/xlink" xml:space="preserve" xmlns:serif="http://www.serif.com/" style="fill-rule:evenodd;clip-rule:evenodd;stroke-linejoin:round;stroke-miterlimit:2;">
    <g transform="matrix(1.42004,0,0,1.19298,-2.59049,-4.82023)">
        <g transform="matrix(52.9598,0,0,52.9598,4.7962,47.1425)">
            <path d="M0.564,-0.561L0.503,-0.174C0.502,-0.167 0.501,-0.161 0.501,-0.157C0.501,-0.151 0.503,-0.147 0.506,-0.144C0.51,-0.14 0.514,-0.139 0.521,-0.139C0.536,-0.139 0.553,-0.145 0.572,-0.159C0.6,-0.178 0.623,-0.206 0.641,-0.243C0.659,-0.28 0.668,-0.325 0.668,-0.377C0.668,-0.463 0.643,-0.531 0.594,-0.581C0.545,-0.631 0.479,-0.656 0.396,-0.656C0.334,-0.656 0.279,-0.641 0.228,-0.612C0.178,-0.583 0.139,-0.54 0.112,-0.484C0.085,-0.429 0.071,-0.367 0.071,-0.3C0.071,-0.195 0.101,-0.112 0.16,-0.051C0.219,0.011 0.295,0.042 0.389,0.042C0.434,0.042 0.478,0.034 0.52,0.019C0.562,0.003 0.603,-0.02 0.642,-0.05L0.742,-0.05C0.715,-0.018 0.69,0.007 0.666,0.024C0.63,0.051 0.589,0.072 0.542,0.089C0.495,0.105 0.445,0.114 0.391,0.114C0.315,0.114 0.248,0.096 0.188,0.062C0.128,0.027 0.081,-0.023 0.048,-0.087C0.014,-0.152 -0.003,-0.223 -0.003,-0.3C-0.003,-0.382 0.015,-0.456 0.05,-0.522C0.085,-0.589 0.131,-0.64 0.189,-0.675C0.247,-0.711 0.316,-0.729 0.395,-0.729C0.498,-0.729 0.581,-0.696 0.645,-0.631C0.71,-0.566 0.742,-0.482 0.742,-0.378C0.742,-0.317 0.729,-0.261 0.704,-0.21C0.679,-0.16 0.642,-0.119 0.594,-0.09C0.556,-0.067 0.521,-0.056 0.488,-0.056C0.469,-0.056 0.453,-0.06 0.44,-0.069C0.428,-0.078 0.419,-0.093 0.413,-0.113C0.391,-0.092 0.371,-0.077 0.354,-0.068C0.336,-0.059 0.316,-0.055 0.295,-0.055C0.252,-0.055 0.215,-0.073 0.184,-0.109C0.152,-0.146 0.137,-0.197 0.137,-0.265C0.137,-0.344 0.157,-0.417 0.197,-0.481C0.237,-0.545 0.286,-0.578 0.346,-0.578C0.369,-0.578 0.389,-0.572 0.407,-0.562C0.425,-0.551 0.443,-0.532 0.46,-0.505L0.469,-0.561L0.564,-0.561ZM0.239,-0.241C0.239,-0.202 0.248,-0.172 0.264,-0.15C0.277,-0.134 0.292,-0.126 0.312,-0.126C0.332,-0.126 0.351,-0.135 0.368,-0.153C0.385,-0.171 0.4,-0.206 0.413,-0.259C0.425,-0.312 0.432,-0.36 0.432,-0.402C0.432,-0.434 0.425,-0.458 0.411,-0.475C0.397,-0.491 0.381,-0.499 0.362,-0.499C0.341,-0.499 0.322,-0.491 0.306,-0.475C0.284,-0.453 0.267,-0.418 0.256,-0.371C0.245,-0.323 0.239,-0.28 0.239,-0.241Z" style="fill:rgb(128,128,128);fill-rule:nonzero;"/>
        </g>
    </g>
</svg>
