<?xml version="1.0" encoding="UTF-8" standalone="no"?>
<!DOCTYPE svg PUBLIC "-//W3C//DTD SVG 1.1//EN" "http://www.w3.org/Graphics/SVG/1.1/DTD/svg11.dtd">
<svg width="100%" height="100%" viewBox="0 0 64 64" version="1.1" xmlns="http://www.w3.org/2000/svg" xmlns:xlink="http://www.w3.org/1999/xlink" xml:space="preserve" xmlns:serif="http://www.serif.com/" style="fill-rule:evenodd;clip-rule:evenodd;stroke-linejoin:round;stroke-miterlimit:2;">
    <g transform="matrix(1.08008,0,0,1.12541,5.56484,-5.8794)">
        <g transform="matrix(52.9598,0,0,52.9598,-5.04325,47.1425)">
            <path d="M0.068,0.199L0.068,-0.716L0.262,-0.716L0.262,-0.643L0.156,-0.643L0.156,0.126L0.262,0.126L0.262,0.199L0.068,0.199Z" style="fill:rgb(128,128,128);fill-rule:nonzero;"/>
        </g>
        <g transform="matrix(52.9598,0,0,52.9598,9.67067,47.1425)">
            <path d="M0.406,-0L0.406,-0.076C0.365,-0.018 0.311,0.012 0.241,0.012C0.211,0.012 0.182,0.006 0.156,-0.006C0.129,-0.018 0.109,-0.032 0.096,-0.05C0.084,-0.068 0.075,-0.09 0.069,-0.115C0.066,-0.132 0.064,-0.16 0.064,-0.197L0.064,-0.519L0.152,-0.519L0.152,-0.231C0.152,-0.185 0.154,-0.154 0.157,-0.138C0.163,-0.115 0.174,-0.097 0.192,-0.084C0.21,-0.071 0.232,-0.064 0.259,-0.064C0.285,-0.064 0.31,-0.071 0.333,-0.084C0.356,-0.098 0.372,-0.116 0.382,-0.139C0.392,-0.163 0.396,-0.196 0.396,-0.241L0.396,-0.519L0.484,-0.519L0.484,-0L0.406,-0Z" style="fill:rgb(128,128,128);fill-rule:nonzero;"/>
        </g>
        <g transform="matrix(52.9598,0,0,52.9598,39.1244,47.1425)">
            <path d="M0.213,0.199L0.019,0.199L0.019,0.126L0.125,0.126L0.125,-0.643L0.019,-0.643L0.019,-0.716L0.213,-0.716L0.213,0.199Z" style="fill:rgb(128,128,128);fill-rule:nonzero;"/>
        </g>
    </g>
</svg>
