<?xml version="1.0" encoding="UTF-8" standalone="no"?>
<!DOCTYPE svg PUBLIC "-//W3C//DTD SVG 1.1//EN" "http://www.w3.org/Graphics/SVG/1.1/DTD/svg11.dtd">
<svg width="100%" height="100%" viewBox="0 0 64 64" version="1.1" xmlns="http://www.w3.org/2000/svg" xmlns:xlink="http://www.w3.org/1999/xlink" xml:space="preserve" xmlns:serif="http://www.serif.com/" style="fill-rule:evenodd;clip-rule:evenodd;stroke-linejoin:round;stroke-miterlimit:2;">
    <g transform="matrix(1.08008,0,0,1.12541,5.55087,-5.8794)">
        <g transform="matrix(52.9598,0,0,52.9598,-5.03032,47.1425)">
            <path d="M0.068,0.199L0.068,-0.716L0.262,-0.716L0.262,-0.643L0.156,-0.643L0.156,0.126L0.262,0.126L0.262,0.199L0.068,0.199Z" style="fill:rgb(128,128,128);fill-rule:nonzero;"/>
        </g>
        <g transform="matrix(52.9598,0,0,52.9598,39.1114,47.1425)">
            <path d="M0.213,0.199L0.019,0.199L0.019,0.126L0.125,0.126L0.125,-0.643L0.019,-0.643L0.019,-0.716L0.213,-0.716L0.213,0.199Z" style="fill:rgb(128,128,128);fill-rule:nonzero;"/>
        </g>
    </g>
    <g transform="matrix(1.08008,0,0,1.12541,5.83018,-5.8794)">
        <g transform="matrix(52.9598,0,0,52.9598,9.67067,47.1425)">
            <path d="M0.07,0.034L0.158,0.021C0.167,0.064 0.182,0.094 0.202,0.111C0.222,0.128 0.249,0.136 0.283,0.136C0.316,0.136 0.342,0.128 0.361,0.111C0.379,0.094 0.389,0.074 0.389,0.051C0.389,0.035 0.383,0.019 0.371,0.005C0.351,-0.019 0.296,-0.059 0.205,-0.114C0.157,-0.144 0.123,-0.167 0.104,-0.184C0.085,-0.201 0.07,-0.22 0.058,-0.243C0.046,-0.266 0.04,-0.29 0.04,-0.314C0.04,-0.346 0.049,-0.374 0.069,-0.399C0.088,-0.425 0.115,-0.443 0.149,-0.453C0.126,-0.475 0.11,-0.495 0.101,-0.514C0.091,-0.533 0.086,-0.553 0.086,-0.574C0.086,-0.615 0.103,-0.652 0.135,-0.682C0.168,-0.713 0.211,-0.728 0.265,-0.728C0.326,-0.728 0.373,-0.714 0.407,-0.685C0.441,-0.656 0.462,-0.614 0.469,-0.559L0.377,-0.549C0.371,-0.589 0.359,-0.617 0.342,-0.632C0.324,-0.648 0.301,-0.656 0.272,-0.656C0.243,-0.656 0.218,-0.648 0.2,-0.632C0.182,-0.615 0.172,-0.598 0.172,-0.578C0.172,-0.561 0.178,-0.546 0.19,-0.531C0.208,-0.509 0.258,-0.473 0.339,-0.424C0.39,-0.393 0.425,-0.37 0.443,-0.355C0.466,-0.335 0.483,-0.315 0.494,-0.294C0.505,-0.274 0.51,-0.251 0.51,-0.227C0.51,-0.19 0.498,-0.158 0.475,-0.132C0.461,-0.117 0.436,-0.102 0.399,-0.087C0.425,-0.067 0.445,-0.046 0.458,-0.023C0.471,-0 0.477,0.024 0.477,0.05C0.477,0.079 0.469,0.106 0.453,0.132C0.436,0.157 0.413,0.177 0.382,0.19C0.352,0.204 0.319,0.21 0.283,0.21C0.221,0.21 0.172,0.195 0.135,0.164C0.099,0.133 0.077,0.09 0.07,0.034ZM0.355,-0.119C0.38,-0.132 0.398,-0.146 0.409,-0.162C0.421,-0.179 0.427,-0.195 0.427,-0.21C0.427,-0.229 0.419,-0.249 0.402,-0.269C0.385,-0.29 0.348,-0.317 0.292,-0.352C0.247,-0.379 0.214,-0.401 0.192,-0.419C0.166,-0.404 0.147,-0.389 0.136,-0.374C0.125,-0.359 0.119,-0.342 0.119,-0.324C0.119,-0.304 0.127,-0.284 0.142,-0.266C0.157,-0.247 0.19,-0.222 0.243,-0.191C0.286,-0.166 0.324,-0.142 0.355,-0.119Z" style="fill:rgb(128,128,128);fill-rule:nonzero;"/>
        </g>
    </g>
</svg>
