<?xml version="1.0" encoding="UTF-8" standalone="no"?>
<!DOCTYPE svg PUBLIC "-//W3C//DTD SVG 1.1//EN" "http://www.w3.org/Graphics/SVG/1.1/DTD/svg11.dtd">
<svg width="100%" height="100%" viewBox="0 0 64 64" version="1.1" xmlns="http://www.w3.org/2000/svg" xmlns:xlink="http://www.w3.org/1999/xlink" xml:space="preserve" xmlns:serif="http://www.serif.com/" style="fill-rule:evenodd;clip-rule:evenodd;stroke-linejoin:round;stroke-miterlimit:2;">
    <g>
        <g transform="matrix(2.17559,0,0,1.00176,-4.70235,-6.2064)">
            <rect x="4" y="10.188" width="25.74" height="7.089" style="fill:rgb(128,128,128);"/>
        </g>
        <g transform="matrix(1.04666,0,0,1,-0.18666,7.4907)">
            <rect x="4" y="46.626" width="23.721" height="5.883" style="fill:rgb(128,128,128);"/>
        </g>
        <g transform="matrix(1,0,0,1.47005,0,-15.4157)">
            <rect x="6.082" y="17.29" width="1.169" height="30.454" style="fill:rgb(128,128,128);"/>
        </g>
        <g transform="matrix(1,0,-8.88178e-16,0.675489,25.3331,-1.67778)">
            <rect x="6.082" y="17.29" width="1.169" height="30.454" style="fill:rgb(128,128,128);"/>
        </g>
    </g>
    <g transform="matrix(0.858927,0,0,1,14.141,21.6616)">
        <g transform="matrix(1.19033,0,0,1,-2.19178,0)">
            <g transform="matrix(48,0,0,48,48.8514,38.3384)">
            </g>
            <text x="11.515px" y="38.338px" style="font-family:'ArialMT', 'Arial', sans-serif;font-size:48px;fill:rgb(128,128,128);">O</text>
        </g>
    </g>
</svg>
