<?xml version="1.0" encoding="UTF-8" standalone="no"?>
<!DOCTYPE svg PUBLIC "-//W3C//DTD SVG 1.1//EN" "http://www.w3.org/Graphics/SVG/1.1/DTD/svg11.dtd">
<svg width="100%" height="100%" viewBox="0 0 64 64" version="1.1" xmlns="http://www.w3.org/2000/svg" xmlns:xlink="http://www.w3.org/1999/xlink" xml:space="preserve" xmlns:serif="http://www.serif.com/" style="fill-rule:evenodd;clip-rule:evenodd;stroke-linejoin:round;stroke-miterlimit:2;">
    <g transform="matrix(1.16756,0,0,1.82281,-0.670231,17.9652)">
        <rect x="4" y="8.103" width="17.091" height="4.447" style="fill:rgb(128,128,128);"/>
    </g>
    <g transform="matrix(2.26533,0,0,1.82281,-5.06132,8.38646)">
        <rect x="4" y="8.103" width="17.091" height="4.447" style="fill:rgb(128,128,128);"/>
    </g>
    <g transform="matrix(2.26533,0,0,1.82281,12.221,-1.19229)">
        <rect x="4" y="8.103" width="17.091" height="4.447" style="fill:rgb(128,128,128);"/>
    </g>
    <g transform="matrix(2.26533,0,0,1.82281,-5.06132,-10.771)">
        <rect x="4" y="8.103" width="17.091" height="4.447" style="fill:rgb(128,128,128);"/>
    </g>
    <g transform="matrix(1,0,0,1,7.94811,21.6616)">
        <g transform="matrix(57.136,0,0,48,11.5155,38.3384)">
            <path d="M0.079,-0L0.079,-0.716L0.396,-0.716C0.46,-0.716 0.508,-0.709 0.542,-0.697C0.575,-0.684 0.601,-0.661 0.621,-0.628C0.641,-0.596 0.651,-0.56 0.651,-0.521C0.651,-0.47 0.634,-0.427 0.602,-0.392C0.569,-0.357 0.518,-0.335 0.449,-0.326C0.474,-0.314 0.493,-0.302 0.506,-0.29C0.534,-0.265 0.56,-0.233 0.585,-0.195L0.709,-0L0.59,-0L0.496,-0.149C0.468,-0.192 0.445,-0.225 0.427,-0.248C0.409,-0.27 0.393,-0.286 0.379,-0.295C0.365,-0.305 0.351,-0.311 0.336,-0.314C0.325,-0.317 0.308,-0.318 0.283,-0.318L0.173,-0.318L0.173,-0L0.079,-0ZM0.173,-0.4L0.377,-0.4C0.42,-0.4 0.454,-0.404 0.479,-0.413C0.503,-0.422 0.521,-0.437 0.534,-0.456C0.547,-0.476 0.553,-0.497 0.553,-0.521C0.553,-0.554 0.541,-0.582 0.516,-0.604C0.492,-0.626 0.453,-0.637 0.4,-0.637L0.173,-0.637L0.173,-0.4Z" style="fill:rgb(128,128,128);fill-rule:nonzero;"/>
        </g>
    </g>
</svg>
