<?xml version="1.0" encoding="UTF-8" standalone="no"?>
<!DOCTYPE svg PUBLIC "-//W3C//DTD SVG 1.1//EN" "http://www.w3.org/Graphics/SVG/1.1/DTD/svg11.dtd">
<svg width="100%" height="100%" viewBox="0 0 64 64" version="1.1" xmlns="http://www.w3.org/2000/svg" xmlns:xlink="http://www.w3.org/1999/xlink" xml:space="preserve" xmlns:serif="http://www.serif.com/" style="fill-rule:evenodd;clip-rule:evenodd;stroke-linejoin:round;stroke-miterlimit:2;">
    <g transform="matrix(1.16756,0,0,1.82281,-0.670231,17.9652)">
        <rect x="4" y="8.103" width="17.091" height="4.447" style="fill:rgb(128,128,128);"/>
    </g>
    <g transform="matrix(2.26533,0,0,1.82281,-5.06132,8.38646)">
        <rect x="4" y="8.103" width="17.091" height="4.447" style="fill:rgb(128,128,128);"/>
    </g>
    <g transform="matrix(2.26533,0,0,1.82281,12.221,-1.19229)">
        <rect x="4" y="8.103" width="17.091" height="4.447" style="fill:rgb(128,128,128);"/>
    </g>
    <g transform="matrix(2.26533,0,0,1.82281,-5.06132,-10.771)">
        <rect x="4" y="8.103" width="17.091" height="4.447" style="fill:rgb(128,128,128);"/>
    </g>
    <g transform="matrix(1,0,0,1,7.94811,21.6616)">
        <g transform="matrix(57.136,0,0,48,11.5155,38.3384)">
            <path d="M0.048,-0.349C0.048,-0.467 0.08,-0.56 0.144,-0.628C0.208,-0.695 0.29,-0.729 0.391,-0.729C0.457,-0.729 0.517,-0.713 0.57,-0.681C0.623,-0.65 0.663,-0.606 0.691,-0.549C0.719,-0.493 0.733,-0.429 0.733,-0.357C0.733,-0.284 0.718,-0.219 0.689,-0.162C0.66,-0.105 0.618,-0.061 0.564,-0.032C0.511,-0.003 0.453,0.012 0.391,0.012C0.323,0.012 0.263,-0.004 0.21,-0.037C0.157,-0.069 0.117,-0.114 0.089,-0.17C0.062,-0.226 0.048,-0.286 0.048,-0.349ZM0.146,-0.347C0.146,-0.261 0.169,-0.193 0.216,-0.143C0.262,-0.094 0.32,-0.069 0.39,-0.069C0.461,-0.069 0.52,-0.094 0.566,-0.144C0.612,-0.194 0.635,-0.265 0.635,-0.357C0.635,-0.416 0.625,-0.467 0.606,-0.51C0.586,-0.553 0.557,-0.587 0.519,-0.611C0.481,-0.635 0.439,-0.647 0.392,-0.647C0.325,-0.647 0.267,-0.624 0.219,-0.578C0.17,-0.532 0.146,-0.455 0.146,-0.347Z" style="fill:rgb(128,128,128);fill-rule:nonzero;"/>
        </g>
    </g>
</svg>
