<?xml version="1.0" encoding="UTF-8" standalone="no"?>
<!DOCTYPE svg PUBLIC "-//W3C//DTD SVG 1.1//EN" "http://www.w3.org/Graphics/SVG/1.1/DTD/svg11.dtd">
<svg width="100%" height="100%" viewBox="0 0 64 64" version="1.1" xmlns="http://www.w3.org/2000/svg" xmlns:xlink="http://www.w3.org/1999/xlink" xml:space="preserve" xmlns:serif="http://www.serif.com/" style="fill-rule:evenodd;clip-rule:evenodd;stroke-linejoin:round;stroke-miterlimit:2;">
    <g transform="matrix(1.16756,0,0,1.82281,-0.670231,17.9652)">
        <rect x="4" y="8.103" width="17.091" height="4.447" style="fill:rgb(128,128,128);"/>
    </g>
    <g transform="matrix(2.26533,0,0,1.82281,-5.06132,8.38646)">
        <rect x="4" y="8.103" width="17.091" height="4.447" style="fill:rgb(128,128,128);"/>
    </g>
    <g transform="matrix(2.26533,0,0,1.82281,12.221,-1.19229)">
        <rect x="4" y="8.103" width="17.091" height="4.447" style="fill:rgb(128,128,128);"/>
    </g>
    <g transform="matrix(2.26533,0,0,1.82281,-5.06132,-10.771)">
        <rect x="4" y="8.103" width="17.091" height="4.447" style="fill:rgb(128,128,128);"/>
    </g>
    <g transform="matrix(1,0,0,1,7.94811,21.6616)">
        <g transform="matrix(57.136,0,0,48,11.5155,38.3384)">
            <path d="M0.004,-0L0.281,-0.373L0.037,-0.716L0.15,-0.716L0.28,-0.532C0.307,-0.494 0.326,-0.465 0.337,-0.444C0.353,-0.47 0.372,-0.498 0.394,-0.526L0.538,-0.716L0.641,-0.716L0.39,-0.378L0.661,-0L0.543,-0L0.363,-0.255C0.353,-0.27 0.343,-0.286 0.332,-0.303C0.316,-0.277 0.305,-0.259 0.298,-0.25L0.118,-0L0.004,-0Z" style="fill:rgb(128,128,128);fill-rule:nonzero;"/>
        </g>
    </g>
</svg>
