<?xml version="1.0" encoding="UTF-8" standalone="no"?>
<!DOCTYPE svg PUBLIC "-//W3C//DTD SVG 1.1//EN" "http://www.w3.org/Graphics/SVG/1.1/DTD/svg11.dtd">
<svg width="100%" height="100%" viewBox="0 0 64 64" version="1.1" xmlns="http://www.w3.org/2000/svg" xmlns:xlink="http://www.w3.org/1999/xlink" xml:space="preserve" xmlns:serif="http://www.serif.com/" style="fill-rule:evenodd;clip-rule:evenodd;stroke-linejoin:round;stroke-miterlimit:2;">
    <g>
        <g transform="matrix(2.17559,0,0,1.00176,-4.70235,-6.2064)">
            <rect x="4" y="10.188" width="25.74" height="7.089" style="fill:rgb(128,128,128);"/>
        </g>
        <g transform="matrix(0.790418,0,0,1,0.83833,7.4907)">
            <rect x="4" y="46.626" width="23.721" height="5.883" style="fill:rgb(128,128,128);"/>
        </g>
        <g transform="matrix(1,0,0,1.47005,0,-15.4157)">
            <rect x="6.082" y="17.29" width="1.169" height="30.454" style="fill:rgb(128,128,128);"/>
        </g>
        <g transform="matrix(1,0,-8.88178e-16,0.539943,25.3331,0.665819)">
            <rect x="6.082" y="17.29" width="1.169" height="30.454" style="fill:rgb(128,128,128);"/>
        </g>
    </g>
    <path d="M60,26.165L60,60L23.162,60L23.162,26.165L60,26.165ZM57.62,28.351L25.542,28.351L25.542,57.814L57.62,57.814L57.62,28.351Z" style="fill:rgb(128,128,128);"/>
    <g transform="matrix(1,0,0,1,-0.0169938,2.64328)">
        <g transform="matrix(1,0,0,1,5.96979,18.5147)">
            <path d="M34.577,32C35.048,32 35.431,32.383 35.431,32.854C35.431,33.325 35.048,33.708 34.577,33.708C34.105,33.708 33.723,33.325 33.723,32.854C33.723,32.383 34.105,32 34.577,32ZM29.064,32C29.535,32 29.918,32.383 29.918,32.854C29.918,33.325 29.535,33.708 29.064,33.708C28.592,33.708 28.21,33.325 28.21,32.854C28.21,32.383 28.592,32 29.064,32ZM31.82,32C32.291,32 32.674,32.383 32.674,32.854C32.674,33.325 32.291,33.708 31.82,33.708C31.349,33.708 30.966,33.325 30.966,32.854C30.966,32.383 31.349,32 31.82,32Z" style="fill:rgb(128,128,128);"/>
        </g>
        <g transform="matrix(1,0,0,1,2.96424,14.8118)">
            <path d="M34.577,32C35.048,32 35.431,32.383 35.431,32.854C35.431,33.325 35.048,33.708 34.577,33.708C34.105,33.708 33.723,33.325 33.723,32.854C33.723,32.383 34.105,32 34.577,32ZM29.064,32C29.535,32 29.918,32.383 29.918,32.854C29.918,33.325 29.535,33.708 29.064,33.708C28.592,33.708 28.21,33.325 28.21,32.854C28.21,32.383 28.592,32 29.064,32ZM31.82,32C32.291,32 32.674,32.383 32.674,32.854C32.674,33.325 32.291,33.708 31.82,33.708C31.349,33.708 30.966,33.325 30.966,32.854C30.966,32.383 31.349,32 31.82,32Z" style="fill:rgb(128,128,128);"/>
        </g>
        <g transform="matrix(1,0,0,1,0.179827,11.1088)">
            <path d="M34.577,32C35.048,32 35.431,32.383 35.431,32.854C35.431,33.325 35.048,33.708 34.577,33.708C34.105,33.708 33.723,33.325 33.723,32.854C33.723,32.383 34.105,32 34.577,32ZM29.064,32C29.535,32 29.918,32.383 29.918,32.854C29.918,33.325 29.535,33.708 29.064,33.708C28.592,33.708 28.21,33.325 28.21,32.854C28.21,32.383 28.592,32 29.064,32ZM31.82,32C32.291,32 32.674,32.383 32.674,32.854C32.674,33.325 32.291,33.708 31.82,33.708C31.349,33.708 30.966,33.325 30.966,32.854C30.966,32.383 31.349,32 31.82,32Z" style="fill:rgb(128,128,128);"/>
        </g>
        <g transform="matrix(1,0,0,1,2.96424,7.40588)">
            <path d="M34.577,32C35.048,32 35.431,32.383 35.431,32.854C35.431,33.325 35.048,33.708 34.577,33.708C34.105,33.708 33.723,33.325 33.723,32.854C33.723,32.383 34.105,32 34.577,32ZM29.064,32C29.535,32 29.918,32.383 29.918,32.854C29.918,33.325 29.535,33.708 29.064,33.708C28.592,33.708 28.21,33.325 28.21,32.854C28.21,32.383 28.592,32 29.064,32ZM31.82,32C32.291,32 32.674,32.383 32.674,32.854C32.674,33.325 32.291,33.708 31.82,33.708C31.349,33.708 30.966,33.325 30.966,32.854C30.966,32.383 31.349,32 31.82,32Z" style="fill:rgb(128,128,128);"/>
        </g>
        <g transform="matrix(1,0,0,1,2.96424,3.70294)">
            <path d="M34.577,32C35.048,32 35.431,32.383 35.431,32.854C35.431,33.325 35.048,33.708 34.577,33.708C34.105,33.708 33.723,33.325 33.723,32.854C33.723,32.383 34.105,32 34.577,32ZM29.064,32C29.535,32 29.918,32.383 29.918,32.854C29.918,33.325 29.535,33.708 29.064,33.708C28.592,33.708 28.21,33.325 28.21,32.854C28.21,32.383 28.592,32 29.064,32ZM31.82,32C32.291,32 32.674,32.383 32.674,32.854C32.674,33.325 32.291,33.708 31.82,33.708C31.349,33.708 30.966,33.325 30.966,32.854C30.966,32.383 31.349,32 31.82,32Z" style="fill:rgb(128,128,128);"/>
        </g>
        <path d="M34.577,32C35.048,32 35.431,32.383 35.431,32.854C35.431,33.325 35.048,33.708 34.577,33.708C34.105,33.708 33.723,33.325 33.723,32.854C33.723,32.383 34.105,32 34.577,32ZM29.064,32C29.535,32 29.918,32.383 29.918,32.854C29.918,33.325 29.535,33.708 29.064,33.708C28.592,33.708 28.21,33.325 28.21,32.854C28.21,32.383 28.592,32 29.064,32ZM31.82,32C32.291,32 32.674,32.383 32.674,32.854C32.674,33.325 32.291,33.708 31.82,33.708C31.349,33.708 30.966,33.325 30.966,32.854C30.966,32.383 31.349,32 31.82,32Z" style="fill:rgb(128,128,128);"/>
    </g>
    <g transform="matrix(1,0,0,1,13.6227,-1.05966)">
        <g transform="matrix(1,0,0,1,5.96979,18.5147)">
            <path d="M34.577,32C35.048,32 35.431,32.383 35.431,32.854C35.431,33.325 35.048,33.708 34.577,33.708C34.105,33.708 33.723,33.325 33.723,32.854C33.723,32.383 34.105,32 34.577,32ZM29.064,32C29.535,32 29.918,32.383 29.918,32.854C29.918,33.325 29.535,33.708 29.064,33.708C28.592,33.708 28.21,33.325 28.21,32.854C28.21,32.383 28.592,32 29.064,32ZM31.82,32C32.291,32 32.674,32.383 32.674,32.854C32.674,33.325 32.291,33.708 31.82,33.708C31.349,33.708 30.966,33.325 30.966,32.854C30.966,32.383 31.349,32 31.82,32Z" style="fill:rgb(128,128,128);"/>
        </g>
        <g transform="matrix(1,0,0,1,2.96424,14.8118)">
            <path d="M34.577,32C35.048,32 35.431,32.383 35.431,32.854C35.431,33.325 35.048,33.708 34.577,33.708C34.105,33.708 33.723,33.325 33.723,32.854C33.723,32.383 34.105,32 34.577,32ZM29.064,32C29.535,32 29.918,32.383 29.918,32.854C29.918,33.325 29.535,33.708 29.064,33.708C28.592,33.708 28.21,33.325 28.21,32.854C28.21,32.383 28.592,32 29.064,32ZM31.82,32C32.291,32 32.674,32.383 32.674,32.854C32.674,33.325 32.291,33.708 31.82,33.708C31.349,33.708 30.966,33.325 30.966,32.854C30.966,32.383 31.349,32 31.82,32Z" style="fill:rgb(128,128,128);"/>
        </g>
        <g transform="matrix(1,0,0,1,0.179827,11.1088)">
            <path d="M34.577,32C35.048,32 35.431,32.383 35.431,32.854C35.431,33.325 35.048,33.708 34.577,33.708C34.105,33.708 33.723,33.325 33.723,32.854C33.723,32.383 34.105,32 34.577,32ZM29.064,32C29.535,32 29.918,32.383 29.918,32.854C29.918,33.325 29.535,33.708 29.064,33.708C28.592,33.708 28.21,33.325 28.21,32.854C28.21,32.383 28.592,32 29.064,32ZM31.82,32C32.291,32 32.674,32.383 32.674,32.854C32.674,33.325 32.291,33.708 31.82,33.708C31.349,33.708 30.966,33.325 30.966,32.854C30.966,32.383 31.349,32 31.82,32Z" style="fill:rgb(128,128,128);"/>
        </g>
        <g transform="matrix(1,0,0,1,2.96424,7.40588)">
            <path d="M34.577,32C35.048,32 35.431,32.383 35.431,32.854C35.431,33.325 35.048,33.708 34.577,33.708C34.105,33.708 33.723,33.325 33.723,32.854C33.723,32.383 34.105,32 34.577,32ZM29.064,32C29.535,32 29.918,32.383 29.918,32.854C29.918,33.325 29.535,33.708 29.064,33.708C28.592,33.708 28.21,33.325 28.21,32.854C28.21,32.383 28.592,32 29.064,32ZM31.82,32C32.291,32 32.674,32.383 32.674,32.854C32.674,33.325 32.291,33.708 31.82,33.708C31.349,33.708 30.966,33.325 30.966,32.854C30.966,32.383 31.349,32 31.82,32Z" style="fill:rgb(128,128,128);"/>
        </g>
        <g transform="matrix(1,0,0,1,2.96424,3.70294)">
            <path d="M34.577,32C35.048,32 35.431,32.383 35.431,32.854C35.431,33.325 35.048,33.708 34.577,33.708C34.105,33.708 33.723,33.325 33.723,32.854C33.723,32.383 34.105,32 34.577,32ZM29.064,32C29.535,32 29.918,32.383 29.918,32.854C29.918,33.325 29.535,33.708 29.064,33.708C28.592,33.708 28.21,33.325 28.21,32.854C28.21,32.383 28.592,32 29.064,32ZM31.82,32C32.291,32 32.674,32.383 32.674,32.854C32.674,33.325 32.291,33.708 31.82,33.708C31.349,33.708 30.966,33.325 30.966,32.854C30.966,32.383 31.349,32 31.82,32Z" style="fill:rgb(128,128,128);"/>
        </g>
        <path d="M34.577,32C35.048,32 35.431,32.383 35.431,32.854C35.431,33.325 35.048,33.708 34.577,33.708C34.105,33.708 33.723,33.325 33.723,32.854C33.723,32.383 34.105,32 34.577,32ZM29.064,32C29.535,32 29.918,32.383 29.918,32.854C29.918,33.325 29.535,33.708 29.064,33.708C28.592,33.708 28.21,33.325 28.21,32.854C28.21,32.383 28.592,32 29.064,32ZM31.82,32C32.291,32 32.674,32.383 32.674,32.854C32.674,33.325 32.291,33.708 31.82,33.708C31.349,33.708 30.966,33.325 30.966,32.854C30.966,32.383 31.349,32 31.82,32Z" style="fill:rgb(128,128,128);"/>
    </g>
</svg>
