<?xml version="1.0" encoding="UTF-8" standalone="no"?>
<!DOCTYPE svg PUBLIC "-//W3C//DTD SVG 1.1//EN" "http://www.w3.org/Graphics/SVG/1.1/DTD/svg11.dtd">
<svg width="100%" height="100%" viewBox="0 0 64 64" version="1.1" xmlns="http://www.w3.org/2000/svg" xmlns:xlink="http://www.w3.org/1999/xlink" xml:space="preserve" xmlns:serif="http://www.serif.com/" style="fill-rule:evenodd;clip-rule:evenodd;stroke-linejoin:round;stroke-miterlimit:2;">
    <path d="M59.304,19.561C61.035,23.351 62,27.564 62,32C62,48.557 48.557,62 32,62C15.443,62 2,48.557 2,32C2,15.443 15.443,2 32,2C35.426,2 38.719,2.576 41.787,3.635C38.037,5.781 35.507,9.821 35.507,14.447C35.507,15.504 35.639,16.53 35.888,17.51C34.647,17.177 33.344,17 32,17C23.721,17 17,23.721 17,32C17,40.279 23.721,47 32,47C40.279,47 47,40.279 47,32C47,30.153 46.666,28.384 46.054,26.749C46.673,26.844 47.308,26.894 47.954,26.894C53.002,26.894 57.351,23.883 59.304,19.561ZM41.787,3.635C43.605,2.595 45.711,2 47.954,2C54.824,2 60.401,7.577 60.401,14.447C60.401,16.269 60.009,18 59.304,19.561C58.734,18.313 58.081,17.111 57.352,15.962C57.37,15.85 57.386,15.737 57.4,15.624L57.134,15.624C56.603,14.811 56.034,14.026 55.429,13.27L57.4,13.27C56.819,8.571 52.809,4.929 47.954,4.929C47.126,4.929 46.322,5.035 45.556,5.235C44.344,4.619 43.086,4.084 41.787,3.635ZM45.556,5.235C49.395,7.185 52.76,9.937 55.429,13.27L48.643,13.27L46.255,8.53C46.109,8.24 45.755,8.123 45.465,8.27L44.414,8.799C44.124,8.945 44.007,9.299 44.153,9.589L46.937,15.116C46.992,15.226 47.078,15.311 47.178,15.366C47.284,15.522 47.463,15.624 47.665,15.624L57.134,15.624C57.207,15.736 57.28,15.849 57.352,15.962C56.625,20.496 52.692,23.965 47.954,23.965C46.588,23.965 45.289,23.676 44.114,23.157C42.917,21.521 41.398,20.137 39.649,19.097C38.877,17.722 38.436,16.135 38.436,14.447C38.436,10.022 41.462,6.299 45.556,5.235ZM35.888,17.51C37.224,17.868 38.487,18.406 39.649,19.097C40.655,20.888 42.223,22.321 44.114,23.157C44.915,24.251 45.571,25.458 46.054,26.749C41.098,25.989 37.102,22.301 35.888,17.51Z" style="fill:rgb(128,128,128);"/>
</svg>
