<?xml version="1.0" encoding="UTF-8" standalone="no"?>
<!DOCTYPE svg PUBLIC "-//W3C//DTD SVG 1.1//EN" "http://www.w3.org/Graphics/SVG/1.1/DTD/svg11.dtd">
<svg width="100%" height="100%" viewBox="0 0 64 64" version="1.1" xmlns="http://www.w3.org/2000/svg" xmlns:xlink="http://www.w3.org/1999/xlink" xml:space="preserve" xmlns:serif="http://www.serif.com/" style="fill-rule:evenodd;clip-rule:evenodd;stroke-linejoin:round;stroke-miterlimit:2;">
    <g transform="matrix(0.768045,0,0,0.768045,10.2065,11.1364)">
        <path d="M22.553,45.811C22.009,43.645 21.622,39.808 21.622,33.07C21.622,19.379 24.323,10.661 24.323,8.389C24.323,8.275 24.324,8.164 24.326,8.056C25.633,7.78 26.987,7.634 28.375,7.634C30.063,7.634 31.701,7.849 33.264,8.252C31.859,12.092 31.568,18.866 31.568,22.756C31.568,35.106 33.637,42.529 34.536,45.702C32.599,46.346 30.527,46.695 28.375,46.695C26.348,46.695 24.392,46.385 22.553,45.811ZM25.564,9.152C25.164,12.26 22.924,20.603 22.924,33.07C22.924,38.951 23.213,42.567 23.655,44.775C25.161,45.178 26.743,45.393 28.375,45.393C29.95,45.393 31.479,45.193 32.937,44.816C31.927,41.091 30.266,33.898 30.266,22.756C30.266,19.188 30.524,13.272 31.601,9.221C30.554,9.034 29.476,8.937 28.375,8.937C27.419,8.937 26.481,9.01 25.564,9.152Z" style="fill:rgb(128,128,128);"/>
    </g>
    <path d="M32,2C48.557,2 62,15.443 62,32C62,48.557 48.557,62 32,62C15.443,62 2,48.557 2,32C2,15.443 15.443,2 32,2ZM27.528,46.321C28.215,49.053 29.227,48.324 29.784,48.324L34.735,48.324C35.348,48.324 37.046,48.56 37.046,47.523C37.046,47.338 36.923,46.914 36.731,46.237C42.695,44.254 47,38.626 47,32C47,25.018 42.219,19.143 35.755,17.475C36.242,16.142 36.905,15.269 37.8,15.269C41.195,15.269 43.128,19.183 43.93,19.183C44.449,19.183 46.759,14.703 46.759,12.629C46.759,10.412 40.016,8.385 32.424,8.385C26.059,8.385 19.693,10.082 19.221,10.978C18.514,12.299 17.241,18.146 17.241,19.607C17.241,20.928 17.476,20.739 17.901,20.739C18.703,20.739 24.597,15.316 27.945,15.316C29.051,15.316 28.912,16.063 28.89,17.323C22.102,18.757 17,24.787 17,32C17,38.722 21.431,44.416 27.528,46.321Z" style="fill:rgb(128,128,128);"/>
</svg>
