<?xml version="1.0" encoding="UTF-8" standalone="no"?>
<!DOCTYPE svg PUBLIC "-//W3C//DTD SVG 1.1//EN" "http://www.w3.org/Graphics/SVG/1.1/DTD/svg11.dtd">
<svg width="100%" height="100%" viewBox="0 0 64 64" version="1.1" xmlns="http://www.w3.org/2000/svg" xmlns:xlink="http://www.w3.org/1999/xlink" xml:space="preserve" xmlns:serif="http://www.serif.com/" style="fill-rule:evenodd;clip-rule:evenodd;stroke-linejoin:round;stroke-miterlimit:2;">
    <g transform="matrix(1,0,0,0.643683,1.5786,22.0917)">
        <path d="M56.93,51.774C56.93,49.893 55.947,48.365 54.736,48.365L6.107,48.365C4.896,48.365 3.912,49.893 3.912,51.774L3.912,58.591C3.912,60.473 4.896,62 6.107,62L54.736,62C55.947,62 56.93,60.473 56.93,58.591L56.93,51.774Z" style="fill:rgb(128,128,128);"/>
    </g>
    <g transform="matrix(1.41577,0,0,1.34148,-2.81267,-2.01137)">
        <path d="M42.419,18.443L44.742,18.443L32.287,27.993L37.044,43.446L24.589,33.896L12.134,43.446L16.892,27.993L4.436,18.443L19.832,18.443L24.589,2.99L27.122,11.218C27.085,11.563 27.067,11.914 27.067,12.269C27.067,17.39 31.006,21.547 35.858,21.547C38.465,21.547 40.808,20.347 42.419,18.443ZM27.122,11.218C27.617,6.591 31.342,2.99 35.858,2.99C40.71,2.99 44.65,7.148 44.65,12.269C44.65,14.639 43.806,16.802 42.419,18.443L39.17,18.443C40.978,17.36 42.264,15.419 42.53,13.146L35.654,13.146C35.511,13.146 35.385,13.07 35.31,12.954C35.239,12.913 35.179,12.849 35.14,12.767L33.173,8.648C33.07,8.431 33.153,8.167 33.358,8.059L34.1,7.664C34.305,7.555 34.555,7.642 34.658,7.858L36.345,11.391L42.53,11.391C42.12,7.889 39.287,5.174 35.858,5.174C32.148,5.174 29.136,8.353 29.136,12.269C29.136,14.914 30.51,17.223 32.546,18.443L29.347,18.443L27.122,11.218ZM32.546,18.443L39.17,18.443C38.192,19.029 37.062,19.364 35.858,19.364C34.654,19.364 33.524,19.029 32.546,18.443Z" style="fill:rgb(128,128,128);"/>
    </g>
</svg>
