<?xml version="1.0" encoding="UTF-8" standalone="no"?>
<!DOCTYPE svg PUBLIC "-//W3C//DTD SVG 1.1//EN" "http://www.w3.org/Graphics/SVG/1.1/DTD/svg11.dtd">
<svg width="100%" height="100%" viewBox="0 0 64 64" version="1.1" xmlns="http://www.w3.org/2000/svg" xmlns:xlink="http://www.w3.org/1999/xlink" xml:space="preserve" xmlns:serif="http://www.serif.com/" style="fill-rule:evenodd;clip-rule:evenodd;stroke-linejoin:round;stroke-miterlimit:2;">
    <g transform="matrix(0.619373,0,0,0.652964,14.4251,25.6608)">
        <path d="M21.978,42.212C21.756,40.004 21.622,37.041 21.622,33.07C21.622,32.678 21.624,32.291 21.628,31.907L28.375,27.257L31.792,29.612C32.164,35.126 32.935,39.292 33.621,42.212L21.978,42.212ZM23.466,40.68C23.466,40.68 31.634,40.68 31.634,40.68C31.088,38.031 30.548,34.63 30.232,30.43C30.232,30.43 28.375,29.15 28.375,29.15C28.375,29.15 23.237,32.691 23.237,32.692C23.237,32.817 23.236,32.944 23.236,33.07C23.236,36.201 23.32,38.695 23.466,40.68Z" style="fill:rgb(128,128,128);"/>
    </g>
    <g transform="matrix(1.41577,0,0,1.34148,-2.81267,-2.01137)">
        <path d="M12.833,41.175L16.892,27.993L4.436,18.443L19.832,18.443L24.589,2.99L29.347,18.443L44.742,18.443L32.287,27.993L36.345,41.175L41.764,41.175C42.619,41.175 43.313,41.908 43.313,42.81L43.313,46.081C43.313,46.984 42.619,47.717 41.764,47.717L7.415,47.717C6.56,47.717 5.865,46.984 5.865,46.081L5.865,42.81C5.865,41.908 6.56,41.175 7.415,41.175L12.833,41.175ZM21.638,36.159L15.096,41.175L21.791,41.175C22.128,44.918 22.93,44.196 23.327,44.196L26.147,44.196C26.496,44.196 27.463,44.346 27.463,43.688C27.463,43.458 27.193,42.638 26.884,41.175L34.082,41.175L26.084,35.042C26.023,34.025 25.986,32.913 25.986,31.705C25.986,28.955 26.255,23.247 27.893,23.247C29.827,23.247 30.928,25.728 31.385,25.728C31.68,25.728 32.996,22.889 32.996,21.574C32.996,20.169 29.155,18.884 24.831,18.884C21.205,18.884 17.579,19.96 17.31,20.528C16.908,21.365 16.182,25.07 16.182,25.997C16.182,26.833 16.317,26.714 16.558,26.714C17.015,26.714 20.372,23.277 22.279,23.277C22.951,23.277 22.817,23.815 22.817,24.712C22.817,25.786 21.701,29.821 21.638,36.159Z" style="fill:rgb(128,128,128);"/>
    </g>
</svg>
