<?xml version="1.0" encoding="UTF-8" standalone="no"?>
<!DOCTYPE svg PUBLIC "-//W3C//DTD SVG 1.1//EN" "http://www.w3.org/Graphics/SVG/1.1/DTD/svg11.dtd">
<svg width="100%" height="100%" viewBox="0 0 64 64" version="1.1" xmlns="http://www.w3.org/2000/svg" xmlns:xlink="http://www.w3.org/1999/xlink" xml:space="preserve" xmlns:serif="http://www.serif.com/" style="fill-rule:evenodd;clip-rule:evenodd;stroke-linejoin:round;stroke-miterlimit:2;">
    <g transform="matrix(0.676532,0,0,0.676532,21.5972,15.2005)">
        <g transform="matrix(61.3951,0,0,61.3951,9.15857,48.419)">
            <path d="M0.371,-0C0.384,-0 0.42,0.005 0.42,-0.017C0.42,-0.035 0.365,-0.161 0.365,-0.418C0.365,-0.51 0.375,-0.701 0.436,-0.701C0.508,-0.701 0.549,-0.618 0.566,-0.618C0.577,-0.618 0.626,-0.713 0.626,-0.757C0.626,-0.804 0.483,-0.847 0.322,-0.847C0.187,-0.847 0.052,-0.811 0.042,-0.792C0.027,-0.764 0,-0.64 0,-0.609C0,-0.581 0.005,-0.585 0.014,-0.585C0.031,-0.585 0.156,-0.7 0.227,-0.7C0.252,-0.7 0.247,-0.682 0.247,-0.652C0.247,-0.615 0.203,-0.473 0.203,-0.25C0.203,0.04 0.247,-0 0.266,-0L0.371,-0Z" style="fill:rgb(128,128,128);fill-rule:nonzero;"/>
        </g>
    </g>
    <g transform="matrix(0.719867,0,0,0.739434,0.560266,7.59125)">
        <path d="M25.656,21.495L25.656,44.525L2,44.525L2,21.495L25.656,21.495ZM21.714,25.333L5.942,25.333L5.942,40.687L21.714,40.687L21.714,25.333Z" style="fill:rgb(128,128,128);"/>
    </g>
    <g transform="matrix(0.719867,0,0,0.739434,0.560266,27.6026)">
        <path d="M25.656,21.495L25.656,44.525L2,44.525L2,21.495L25.656,21.495ZM21.714,25.333L5.942,25.333L5.942,40.687L21.714,40.687L21.714,25.333Z" style="fill:rgb(128,128,128);"/>
    </g>
    <g transform="matrix(0.719867,0,0,0.739434,0.560266,-12.4201)">
        <path d="M25.656,21.495L25.656,44.525L2,44.525L2,21.495L25.656,21.495ZM21.714,25.333L5.942,25.333L5.942,40.687L21.714,40.687L21.714,25.333Z" style="fill:rgb(128,128,128);"/>
    </g>
</svg>
