<?xml version="1.0" encoding="UTF-8" standalone="no"?>
<!DOCTYPE svg PUBLIC "-//W3C//DTD SVG 1.1//EN" "http://www.w3.org/Graphics/SVG/1.1/DTD/svg11.dtd">
<svg width="100%" height="100%" viewBox="0 0 64 64" version="1.1" xmlns="http://www.w3.org/2000/svg" xmlns:xlink="http://www.w3.org/1999/xlink" xml:space="preserve" xmlns:serif="http://www.serif.com/" style="fill-rule:evenodd;clip-rule:evenodd;stroke-linejoin:round;stroke-miterlimit:2;">
    <path d="M32,2C48.557,2 62,15.443 62,32C62,48.557 48.557,62 32,62C15.443,62 2,48.557 2,32C2,15.443 15.443,2 32,2ZM32,9.06C19.339,9.06 9.06,19.339 9.06,32C9.06,44.661 19.339,54.94 32,54.94C44.661,54.94 54.94,44.661 54.94,32C54.94,19.339 44.661,9.06 32,9.06Z" style="fill:rgb(128,128,128);"/>
    <g transform="matrix(1,0,0,1,-2.11526,1.73803)">
        <path d="M58.329,28.844C58.329,28.061 57.694,27.425 56.911,27.425L33.418,27.425C32.636,27.425 32,28.061 32,28.844L32,31.68C32,32.463 32.636,33.099 33.418,33.099L56.911,33.099C57.694,33.099 58.329,32.463 58.329,31.68L58.329,28.844Z" style="fill:rgb(128,128,128);"/>
    </g>
    <g transform="matrix(-0.303296,-0.602116,0.893095,-0.449868,15.3982,66.484)">
        <path d="M58.329,28.844C58.329,28.061 57.387,27.425 56.226,27.425L34.104,27.425C32.943,27.425 32,28.061 32,28.844L32,31.68C32,32.463 32.943,33.099 34.104,33.099L56.226,33.099C57.387,33.099 58.329,32.463 58.329,31.68L58.329,28.844Z" style="fill:rgb(128,128,128);"/>
    </g>
</svg>
